<svg width="20" height="15" viewBox="0 0 20 15" fill="none" xmlns="http://www.w3.org/2000/svg">
<path d="M17.9167 0.5H6.04167C5.49542 0.5 5.06792 0.772222 4.78292 1.18444L0.5 7.5L4.78292 13.8078C5.06792 14.22 5.49542 14.5 6.04167 14.5H17.9167C18.3366 14.5 18.7393 14.3361 19.0363 14.0444C19.3332 13.7527 19.5 13.357 19.5 12.9444V2.05556C19.5 1.643 19.3332 1.24733 19.0363 0.955612C18.7393 0.663888 18.3366 0.5 17.9167 0.5ZM15.5417 10.2922L14.4254 11.3889L11.5833 8.59667L8.74125 11.3889L7.625 10.2922L10.4671 7.5L7.625 4.70778L8.74125 3.61111L11.5833 6.40333L14.4254 3.61111L15.5417 4.70778L12.6996 7.5" fill="white"/>
</svg>
